<svg width="23" height="22" viewBox="0 0 23 22" fill="none" xmlns="http://www.w3.org/2000/svg">
<path d="M18.8333 2.75H4.16668C3.68045 2.75 3.21413 2.94315 2.87031 3.28697C2.5265 3.63079 2.33334 4.0971 2.33334 4.58333V17.4167C2.33334 17.9029 2.5265 18.3692 2.87031 18.713C3.21413 19.0568 3.68045 19.25 4.16668 19.25H18.8333C19.3196 19.25 19.7859 19.0568 20.1297 18.713C20.4735 18.3692 20.6667 17.9029 20.6667 17.4167V4.58333C20.6667 4.0971 20.4735 3.63079 20.1297 3.28697C19.7859 2.94315 19.3196 2.75 18.8333 2.75ZM10.5833 15.5833H5.08334V13.75H10.5833V15.5833ZM17.9167 11.9167H5.08334V10.0833H17.9167V11.9167ZM17.9167 8.25H5.08334V6.41667H17.9167V8.25Z" fill="black"/>
</svg>
