<svg width="24" height="24" viewBox="0 0 24 24" fill="none" xmlns="http://www.w3.org/2000/svg">
<path d="M2.3868 6.7068C2.3868 8.4996 2.9856 9.7932 4.1652 10.5528C5.1324 11.1768 6.2532 11.2704 6.8364 11.2704C6.978 11.2704 7.092 11.2632 7.1712 11.2584C7.1712 11.2584 6.9864 12.4632 7.8792 13.6536H7.8384C6.2916 13.6536 1.2468 13.9764 1.2468 18.126C1.2468 22.3452 5.88 22.56 6.81 22.56C6.8832 22.56 6.92639 22.5576 6.92639 22.5576C6.936 22.5576 7.002 22.56 7.11599 22.56C7.7124 22.56 9.25439 22.4856 10.686 21.7884C12.5436 20.8884 13.4856 19.3176 13.4856 17.1264C13.4856 15.0096 12.0504 13.7496 11.0028 12.828C10.3632 12.2652 9.81 11.7804 9.81 11.3088C9.81 10.8288 10.2144 10.4676 10.7244 10.0104C11.5512 9.2724 12.3312 8.22 12.3312 6.2304C12.3312 4.482 12.1044 3.3072 10.7064 2.562C10.8516 2.4876 11.3676 2.4336 11.622 2.3976C12.3792 2.2944 13.4868 2.1768 13.4868 1.5588V1.44H7.968C7.9128 1.4424 2.3868 1.6464 2.3868 6.7068ZM11.2956 17.5224C11.4012 19.2096 9.9576 20.454 7.7892 20.6112C5.5872 20.7732 3.7752 19.782 3.6696 18.096C3.618 17.2848 3.9744 16.4928 4.6716 15.8604C5.3784 15.2208 6.3492 14.8248 7.4052 14.7468C7.53 14.7396 7.65359 14.7324 7.77719 14.7324C9.816 14.7336 11.196 15.9312 11.2956 17.5224ZM9.85439 5.5512C10.3956 7.4568 9.57839 9.4464 8.2752 9.8148C8.12518 9.85661 7.97013 9.8776 7.8144 9.8772C6.6216 9.8772 5.4396 8.67 5.0004 7.0056C4.7556 6.0744 4.776 5.256 5.0568 4.4712C5.3316 3.6972 5.8284 3.1776 6.45239 3.0012C6.6024 2.9592 6.7572 2.9376 6.9144 2.9376C8.3544 2.9376 9.2808 3.5352 9.85439 5.5512ZM19.2 9.6V6H16.8V9.6H13.2V12H16.8V15.6H19.2V12H22.8V9.6H19.2Z" fill="#CD0505"/>
</svg>
