<svg width="14" height="13" viewBox="0 0 14 13" fill="none" xmlns="http://www.w3.org/2000/svg">
<g clip-path="url(#clip0_5_108)">
<path d="M13.0557 4.17857V6.03571C13.0557 6.16145 13.0097 6.27027 12.9178 6.36216C12.826 6.45405 12.7171 6.5 12.5914 6.5H12.1271C12.0014 6.5 11.8925 6.45405 11.8007 6.36216C11.7088 6.27027 11.6628 6.16145 11.6628 6.03571V4.17857C11.6628 3.66592 11.4815 3.22823 11.1187 2.86551C10.756 2.50279 10.3183 2.32142 9.80568 2.32142C9.29303 2.32142 8.85535 2.50279 8.49262 2.86551C8.1299 3.22823 7.94854 3.66592 7.94854 4.17857V5.57142H8.64497C8.83842 5.57142 9.00285 5.63913 9.13827 5.77455C9.27369 5.90997 9.3414 6.0744 9.3414 6.26785V10.4464C9.3414 10.6399 9.27369 10.8043 9.13827 10.9397C9.00285 11.0751 8.83842 11.1429 8.64497 11.1429H1.68068C1.48723 11.1429 1.32279 11.0751 1.18738 10.9397C1.05196 10.8043 0.984253 10.6399 0.984253 10.4464V6.26785C0.984253 6.0744 1.05196 5.90997 1.18738 5.77455C1.32279 5.63913 1.48723 5.57142 1.68068 5.57142H6.55568V4.17857C6.55568 3.28385 6.87367 2.5185 7.50964 1.88253C8.14562 1.24655 8.91096 0.928567 9.80568 0.928567C10.7004 0.928567 11.4657 1.24655 12.1017 1.88253C12.7377 2.5185 13.0557 3.28385 13.0557 4.17857Z" fill="#00275E"/>
</g>
<defs>
<clipPath id="clip0_5_108">
<rect width="12.08" height="13" fill="white" transform="matrix(1 0 0 -1 0.97998 13)"/>
</clipPath>
</defs>
</svg>
