<svg width="11" height="13" viewBox="0 0 11 13" fill="none" xmlns="http://www.w3.org/2000/svg">
<g clip-path="url(#clip0_5_111)">
<path d="M10.4972 10.1925C10.4972 10.7729 10.3207 11.2311 9.96761 11.5672C9.61456 11.9034 9.14544 12.0714 8.56024 12.0714H2.21984C1.63465 12.0714 1.16552 11.9034 0.812474 11.5672C0.459423 11.2311 0.282898 10.7729 0.282898 10.1925C0.282898 9.9362 0.291361 9.68592 0.308289 9.44168C0.325216 9.19745 0.35907 8.93387 0.409851 8.65095C0.460632 8.36802 0.524713 8.10565 0.602094 7.86384C0.679475 7.62202 0.783456 7.38625 0.914036 7.15653C1.04462 6.9268 1.19454 6.73093 1.36381 6.56892C1.53308 6.4069 1.73984 6.27753 1.98407 6.1808C2.2283 6.08408 2.49793 6.03571 2.79294 6.03571C2.83647 6.03571 2.93803 6.0877 3.09763 6.19168C3.25723 6.29566 3.43738 6.41174 3.63809 6.5399C3.83879 6.66806 4.09996 6.78413 4.42157 6.88811C4.74318 6.99209 5.06601 7.04408 5.39004 7.04408C5.71407 7.04408 6.0369 6.99209 6.35851 6.88811C6.68013 6.78413 6.94129 6.66806 7.14199 6.5399C7.3427 6.41174 7.52285 6.29566 7.68245 6.19168C7.84205 6.0877 7.94361 6.03571 7.98714 6.03571C8.28215 6.03571 8.55178 6.08408 8.79601 6.1808C9.04025 6.27753 9.247 6.4069 9.41627 6.56892C9.58554 6.73093 9.73547 6.9268 9.86605 7.15653C9.99663 7.38625 10.1006 7.62202 10.178 7.86384C10.2554 8.10565 10.3194 8.36802 10.3702 8.65095C10.421 8.93387 10.4549 9.19745 10.4718 9.44168C10.4887 9.68592 10.4972 9.9362 10.4972 10.1925ZM7.35963 1.7447C7.35963 1.7447 7.49565 1.88072 7.76769 2.15276C8.03973 2.4248 8.17576 2.94531 8.17576 3.71428C8.17576 4.48326 7.90371 5.13979 7.35963 5.68387C6.81554 6.22796 6.15901 6.5 5.39004 6.5C4.62107 6.5 3.96454 6.22796 3.42045 5.68387C2.87637 5.13979 2.60433 4.48326 2.60433 3.71428C2.60433 2.94531 2.87637 2.28878 3.42045 1.7447C3.96454 1.20061 4.62107 0.92857 5.39004 0.92857C6.15901 0.92857 6.81554 1.20061 7.35963 1.7447Z" fill="#00275E"/>
</g>
<defs>
<clipPath id="clip0_5_111">
<rect width="10.22" height="13" fill="white" transform="matrix(1 0 0 -1 0.280029 13)"/>
</clipPath>
</defs>
</svg>
